# xmcd
#
# Track frame offsets: 
#        150
#        17673
#        36383
#        62062
#        78801
#
# Disc length: 1219 seconds
#
# Revision: 0
# Processed by: cddbd v1.5.2PL0 Copyright (c) Steve Scherf et al.
# Submitted via: ExactAudioCopy v1.0b3
#
DISCID=3404c105
DTITLE=Mama Basutos's Blues Ensemble - Used Blues
DYEAR=1900
DGENRE=Blues
TTITLE0=One Scotch, One Bourbon, One Beer
TTITLE1=You've got to Move
TTITLE2=Bring it on Home to me
TTITLE3=See, See Rider
TTITLE4=Let me go Home, Whisky
EXTD=
EXTT0=
EXTT1=
EXTT2=
EXTT3=
EXTT4=
PLAYORDER=
